<mxfile host="app.diagrams.net" modified="2021-08-10T03:55:37.899Z" agent="5.0 (Windows NT 10.0; Win64; x64) AppleWebKit/537.36 (KHTML, like Gecko) Chrome/92.0.4515.131 Safari/537.36" etag="0ZKAtwLVkwsEnnEAbRVL" version="14.9.5" type="github">
  <diagram id="R2lEEEUBdFMjLlhIrx00" name="Page-1">
    <mxGraphModel dx="868" dy="460" grid="1" gridSize="10" guides="1" tooltips="1" connect="1" arrows="1" fold="1" page="1" pageScale="1" pageWidth="850" pageHeight="1100" math="0" shadow="0" extFonts="Permanent Marker^https://fonts.googleapis.com/css?family=Permanent+Marker">
      <root>
        <mxCell id="0" />
        <mxCell id="1" parent="0" />
        <mxCell id="ggTeY2CvKrcmnO82u_cy-2" value="Manager" style="whiteSpace=wrap;html=1;align=center;" vertex="1" parent="1">
          <mxGeometry x="151" y="190" width="100" height="40" as="geometry" />
        </mxCell>
        <mxCell id="ggTeY2CvKrcmnO82u_cy-7" value="" style="line;strokeWidth=1;direction=south;html=1;" vertex="1" parent="1">
          <mxGeometry x="191" y="80" width="10" height="110" as="geometry" />
        </mxCell>
        <mxCell id="ggTeY2CvKrcmnO82u_cy-8" value="" style="endArrow=none;html=1;rounded=0;" edge="1" parent="1">
          <mxGeometry relative="1" as="geometry">
            <mxPoint x="371" y="212" as="sourcePoint" />
            <mxPoint x="251" y="211.5" as="targetPoint" />
          </mxGeometry>
        </mxCell>
        <mxCell id="ggTeY2CvKrcmnO82u_cy-9" value="1" style="resizable=0;html=1;align=right;verticalAlign=bottom;" connectable="0" vertex="1" parent="ggTeY2CvKrcmnO82u_cy-8">
          <mxGeometry x="1" relative="1" as="geometry">
            <mxPoint x="10" y="-1" as="offset" />
          </mxGeometry>
        </mxCell>
        <mxCell id="ggTeY2CvKrcmnO82u_cy-10" value="" style="line;strokeWidth=1;rotatable=0;dashed=0;labelPosition=right;align=left;verticalAlign=middle;spacingTop=0;spacingLeft=6;points=[];portConstraint=eastwest;" vertex="1" parent="1">
          <mxGeometry x="196" y="162" width="44" height="10" as="geometry" />
        </mxCell>
        <mxCell id="ggTeY2CvKrcmnO82u_cy-12" value="" style="line;strokeWidth=1;rotatable=0;dashed=0;labelPosition=right;align=left;verticalAlign=middle;spacingTop=0;spacingLeft=6;points=[];portConstraint=eastwest;" vertex="1" parent="1">
          <mxGeometry x="150" y="120" width="55" height="10" as="geometry" />
        </mxCell>
        <mxCell id="ggTeY2CvKrcmnO82u_cy-13" value="" style="line;strokeWidth=1;rotatable=0;dashed=0;labelPosition=right;align=left;verticalAlign=middle;spacingTop=0;spacingLeft=6;points=[];portConstraint=eastwest;" vertex="1" parent="1">
          <mxGeometry x="196" y="120" width="34" height="10" as="geometry" />
        </mxCell>
        <mxCell id="ggTeY2CvKrcmnO82u_cy-14" value="" style="line;strokeWidth=1;rotatable=0;dashed=0;labelPosition=right;align=left;verticalAlign=middle;spacingTop=0;spacingLeft=6;points=[];portConstraint=eastwest;" vertex="1" parent="1">
          <mxGeometry x="150" y="75" width="46" height="10" as="geometry" />
        </mxCell>
        <mxCell id="ggTeY2CvKrcmnO82u_cy-15" value="password" style="ellipse;whiteSpace=wrap;html=1;align=center;strokeWidth=1;" vertex="1" parent="1">
          <mxGeometry x="71" y="65" width="79" height="30" as="geometry" />
        </mxCell>
        <mxCell id="ggTeY2CvKrcmnO82u_cy-16" value="id" style="ellipse;whiteSpace=wrap;html=1;align=center;strokeWidth=1;" vertex="1" parent="1">
          <mxGeometry x="230" y="152" width="40" height="30" as="geometry" />
        </mxCell>
        <mxCell id="ggTeY2CvKrcmnO82u_cy-18" value="nama" style="ellipse;whiteSpace=wrap;html=1;align=center;strokeWidth=1;" vertex="1" parent="1">
          <mxGeometry x="231" y="110" width="79" height="30" as="geometry" />
        </mxCell>
        <mxCell id="ggTeY2CvKrcmnO82u_cy-21" value="email" style="ellipse;whiteSpace=wrap;html=1;align=center;strokeWidth=1;" vertex="1" parent="1">
          <mxGeometry x="76" y="110" width="79" height="30" as="geometry" />
        </mxCell>
        <mxCell id="ggTeY2CvKrcmnO82u_cy-26" value="Membuat list kursus" style="shape=rhombus;perimeter=rhombusPerimeter;whiteSpace=wrap;html=1;align=center;strokeWidth=1;" vertex="1" parent="1">
          <mxGeometry x="370" y="182" width="120" height="60" as="geometry" />
        </mxCell>
      </root>
    </mxGraphModel>
  </diagram>
</mxfile>
